<?xml version="1.0" encoding="UTF-8" standalone="no"?>
<!-- Generator: Adobe Illustrator 19.0.0, SVG Export Plug-In . SVG Version: 6.00 Build 0)  -->

<svg
   xmlns:dc="http://purl.org/dc/elements/1.1/"
   xmlns:cc="http://creativecommons.org/ns#"
   xmlns:rdf="http://www.w3.org/1999/02/22-rdf-syntax-ns#"
   xmlns:svg="http://www.w3.org/2000/svg"
   xmlns="http://www.w3.org/2000/svg"
   xmlns:sodipodi="http://sodipodi.sourceforge.net/DTD/sodipodi-0.dtd"
   xmlns:inkscape="http://www.inkscape.org/namespaces/inkscape"
   version="1.1"
   id="Capa_1"
   x="0px"
   y="0px"
   viewBox="0 0 508 508"
   style="enable-background:new 0 0 508 508;"
   xml:space="preserve"
   sodipodi:docname="user.svg"
   inkscape:version="0.92.5 (2060ec1f9f, 2020-04-08)"
   inkscape:export-filename="/home/c3rberuss/Proyectos/Aplicaciones/movies_app/assets/images/user2.png"
   inkscape:export-xdpi="96"
   inkscape:export-ydpi="96"><metadata
   id="metadata41"><rdf:RDF><cc:Work
       rdf:about=""><dc:format>image/svg+xml</dc:format><dc:type
         rdf:resource="http://purl.org/dc/dcmitype/StillImage" /></cc:Work></rdf:RDF></metadata><defs
   id="defs39" /><sodipodi:namedview
   pagecolor="#ffffff"
   bordercolor="#666666"
   borderopacity="1"
   objecttolerance="10"
   gridtolerance="10"
   guidetolerance="10"
   inkscape:pageopacity="0"
   inkscape:pageshadow="2"
   inkscape:window-width="1366"
   inkscape:window-height="717"
   id="namedview37"
   showgrid="false"
   inkscape:zoom="0.46456693"
   inkscape:cx="-260.45763"
   inkscape:cy="254"
   inkscape:window-x="0"
   inkscape:window-y="24"
   inkscape:window-maximized="1"
   inkscape:current-layer="Capa_1" />
<path
   style="fill:#b9b9b9;fill-opacity:1"
   d="M254,0C113.7,0,0,113.7,0,254c0,75.7,33.1,143.7,85.7,190.3C130.6,483.9,189.5,508,254,508  c64.6,0,123.5-24.1,168.3-63.8C474.9,397.7,508,329.7,508,254C508,113.7,394.3,0,254,0z"
   id="path2" />
<path
   style="fill:#141414;fill-opacity:1"
   d="M402.4,423.6c-13-9.7-36.6-25.8-62.3-37.7c-25.7-11.8-40.8-39.5-36.7-67.4c0-0.4,0.1-0.8,0.2-1.3  c0,0,58.5-39.6,50.4-78.2c0,0,1.8,0.1,4.5-0.1c25.8-2.4,27.4-40.8,1.9-44.9c-0.2,0-0.5-0.1-0.7-0.1l-0.8-4.2  c7.8-27.3,26.8-110-30.7-102c0,0-41.3-68.3-128.6-35.4C112.2,85.1,135,163.4,135,163.4l10.8,31.2c-23.5,5.8-21.3,42.1,3.7,44.4  c2.7,0.2,4.6,0.1,4.6,0.1c-8.2,38.6,50.3,78.2,50.3,78.2c0.1,0.5,0.1,0.9,0.2,1.3c4,27.9-11.1,55.6-36.7,67.4  c-25.8,11.9-49.3,28.1-62.3,37.7c-7.8,5.7-14.7,12.6-20,20.7c45,39.5,103.9,63.6,168.4,63.6c64.6,0,123.5-24.1,168.3-63.8  C417.1,436.2,410.2,429.3,402.4,423.6z"
   id="path4" />
<g
   id="g6">
</g>
<g
   id="g8">
</g>
<g
   id="g10">
</g>
<g
   id="g12">
</g>
<g
   id="g14">
</g>
<g
   id="g16">
</g>
<g
   id="g18">
</g>
<g
   id="g20">
</g>
<g
   id="g22">
</g>
<g
   id="g24">
</g>
<g
   id="g26">
</g>
<g
   id="g28">
</g>
<g
   id="g30">
</g>
<g
   id="g32">
</g>
<g
   id="g34">
</g>
</svg>